Coordinates
version=1
nRows=9
nColumns=24
inDegrees=yes

Units are S.I. units (second, meters, Newtons, ...)
Angles are in degrees.

endheader
time	pelvis_tilt	pelvis_list	pelvis_rotation	pelvis_tx	pelvis_ty	pelvis_tz	hip_flexion_r	hip_adduction_r	hip_rotation_r	knee_angle_r	ankle_angle_r	subtalar_angle_r	mtp_angle_r	hip_flexion_l	hip_adduction_l	hip_rotation_l	knee_angle_l	ankle_angle_l	subtalar_angle_l	mtp_angle_l	lumbar_extension	lumbar_bending	lumbar_rotation
      4.40000000	     -7.67764096	     -7.86413602	      0.95070135	     -0.94777247	     -0.01513869	      0.60094101	     13.50913086	     10.91642760	     -5.75721727	    -13.00049789	      0.62203237	     -4.78515271	      3.45578886	     27.40618046	    -14.38603325	     -6.57663010	    -66.51719858	     -7.47101675	     17.84373657	     31.91789853	      6.38381032	      7.97039681	     -0.38135440
      4.40500000	     -7.68428899	     -7.61864710	      0.55143961	     -0.94187961	     -0.01431952	      0.60170436	     12.77105917	     10.80475683	     -5.31541343	    -12.45213373	      0.75291291	     -4.52915489	      3.55214902	     28.07047279	    -14.16709804	     -7.06279415	    -66.02866747	     -7.24427420	     17.89695537	     31.85824340	      6.30143732	      7.79261501	      0.18944097
      4.41000000	     -7.69178255	     -7.37432983	      0.14745190	     -0.93600827	     -0.01357401	      0.60246896	     12.04700921	     10.68473227	     -4.86567657	    -11.92178587	      0.88652725	     -4.28523743	      3.62254904	     28.71651839	    -13.95644600	     -7.55743546	    -65.47457775	     -7.02155266	     17.89617373	     31.74578842	      6.22042432	      7.61718978	      0.76049589
      4.41500000	     -7.69965590	     -7.13115020	     -0.26271851	     -0.93016177	     -0.01289870	      0.60323074	     11.33707520	     10.55608071	     -4.40926104	    -11.40987398	      1.02205449	     -4.05057145	      3.67064789	     29.34243939	    -13.75405514	     -8.05989981	    -64.85443726	     -6.80379265	     17.84787417	     31.57798779	      6.13987188	      7.44481589	      1.33493821
      4.42000000	     -7.71057841	     -6.89092097	     -0.67553526	     -0.92432954	     -0.01229917	      0.60400559	     10.64412806	     10.42120857	     -3.95678283	    -10.91688367	      1.15738492	     -3.82166816	      3.70051747	     29.95138640	    -13.56197455	     -8.56363905	    -64.17022416	     -6.59210883	     17.75751970	     31.35781662	      6.06204565	      7.27361101	      1.90619995
      4.42500000	     -7.72292624	     -6.65487120	     -1.09039175	     -0.91852099	     -0.01177636	      0.60477674	      9.96659462	     10.28033079	     -3.50680805	    -10.44205639	      1.30005381	     -3.59543804	      3.71921232	     30.54186965	    -13.37958978	     -9.06647369	    -63.42239960	     -6.38491304	     17.63009423	     31.08471890	      5.98631512	      7.10617696	      2.47537703
      4.43000000	     -7.73653047	     -6.42320357	     -1.50672301	     -0.91273445	     -0.01132743	      0.60554673	      9.30544351	     10.13371552	     -3.06602345	     -9.98644352	      1.44575130	     -3.37029007	      3.73205848	     31.11252228	    -13.20669996	     -9.56697975	    -62.61097677	     -6.18259586	     17.47347671	     30.75927249	      5.91172440	      6.94185618	      3.04201587
      4.43500000	     -7.72812096	     -6.21305227	     -1.91999904	     -0.90697618	     -0.01094942	      0.60630709	      8.63261148	      9.99920059	     -2.62584606	     -9.54599608	      1.60048628	     -3.15657357	      3.73605102	     31.64223577	    -13.05600037	    -10.04344966	    -61.74763829	     -5.95690553	     17.32616187	     30.32688171	      5.81004183	      6.80206672	      3.62942810
      4.44000000	     -7.76869411	     -5.98369653	     -2.32204067	     -0.90119356	     -0.01066718	      0.60705988	      8.02695936	      9.83270168	     -2.22478090	     -9.12403796	      1.75984582	     -2.92679232	      3.76350603	     32.19756491	    -12.88630944	    -10.52776735	    -60.80175466	     -5.78101578	     17.10614498	     29.94375798	      5.77535610	      6.63531203	      4.13641173
